<mxfile host="app.diagrams.net" modified="2024-10-22T06:07:43.905Z" agent="Mozilla/5.0 (Macintosh; Intel Mac OS X 10_15_7) AppleWebKit/537.36 (KHTML, like Gecko) Chrome/130.0.0.0 Safari/537.36" version="24.6.2" etag="qQXm9n-IW-xF7PlR9qMv" type="github">
  <diagram name="第1頁" id="7wkVwEU48nWs9jgTjcIm">
    <mxGraphModel>
      <root>
        <mxCell id="0" />
        <mxCell id="1" parent="0" />
      </root>
    </mxGraphModel>
  </diagram>
</mxfile>
